<?xml version="1.0" standalone="no"?>
<!DOCTYPE svg PUBLIC "-//W3C//DTD SVG 20010904//EN"
 "http://www.w3.org/TR/2001/REC-SVG-20010904/DTD/svg10.dtd">
<svg version="1.0" xmlns="http://www.w3.org/2000/svg"
 width="192.000000pt" height="192.000000pt" viewBox="0 0 192.000000 192.000000"
 preserveAspectRatio="xMidYMid meet">
<metadata>
Created by potrace 1.11, written by Peter Selinger 2001-2013
</metadata>
<g transform="translate(0.000000,192.000000) scale(0.100000,-0.100000)"
fill="#000000" stroke="none">
<path d="M900 1899 c-169 -26 -325 -165 -365 -324 -9 -40 -17 -77 -19 -95 0
-8 -16 -31 -34 -50 -17 -19 -32 -37 -32 -41 0 -3 -15 -5 -32 -4 -81 4 -187
-37 -247 -94 -88 -84 -121 -170 -121 -311 l0 -100 28 0 c16 0 31 -2 34 -5 2
-3 -2 -51 -9 -107 -20 -153 -24 -286 -9 -330 18 -52 70 -114 120 -143 45 -26
192 -69 207 -59 5 3 9 2 9 -3 0 -4 -19 -24 -42 -45 -43 -36 -43 -36 -43 -107
l-1 -71 40 -1 c55 -1 1145 -1 1174 0 21 1 22 5 22 75 l0 73 -46 36 -46 36 28
6 c183 36 253 78 306 180 28 54 26 174 -8 428 -5 37 -5 37 30 37 l34 0 -3 108
c-1 59 -8 121 -14 137 -62 161 -179 251 -338 259 -60 3 -102 53 -125 151 -24
103 -52 158 -113 223 -101 109 -246 163 -385 141z"/>
</g>
</svg>
